<svg width="254" height="59" viewBox="0 0 254 59" fill="none" xmlns="http://www.w3.org/2000/svg">
<path d="M72.1109 46H69.3332C68.7336 46 68.3368 45.903 68.1428 45.709C67.9664 45.515 67.8782 45.1094 67.8782 44.4921V27.9318C67.8782 27.6143 67.9664 27.3586 68.1428 27.1646C68.3192 26.9706 68.5484 26.8736 68.8306 26.8736H72.1109V46ZM73.1691 26.8736H76.5288C77.5517 26.8736 78.3541 26.953 78.9361 27.1117C79.5357 27.2704 79.9855 27.5879 80.2853 28.0641C80.5851 28.5226 80.7703 29.0429 80.8408 29.6249C80.929 30.1892 80.9731 30.9917 80.9731 32.0322C80.9731 33.0727 80.929 33.8663 80.8408 34.4131C80.7703 34.9598 80.5851 35.4712 80.2853 35.9474C80.0031 36.4236 79.5534 36.7587 78.9361 36.9527C78.3365 37.1467 77.534 37.2437 76.5288 37.2437H73.1691V34.7305H75.1267C75.5852 34.7305 75.8762 34.6688 75.9997 34.5453C76.1408 34.4219 76.2113 34.2279 76.2113 33.9633V30.1804C76.2113 29.8982 76.1408 29.6954 75.9997 29.5719C75.8762 29.4485 75.5852 29.3868 75.1267 29.3868H73.1691V26.8736ZM75.7087 38.0637H78.989C79.5181 38.0637 79.8973 38.2136 80.1265 38.5135C80.3558 38.7956 80.4704 39.263 80.4704 39.9155V46H76.661C76.3789 46 76.1496 45.903 75.9732 45.709C75.7969 45.515 75.7087 45.2593 75.7087 44.9418V38.0637ZM87.8284 46H87.7755C86.0295 46 84.9537 45.7002 84.5481 45.1006C84.3541 44.8184 84.1954 44.545 84.0719 44.2805C83.9661 44.0159 83.8956 43.6015 83.8603 43.0371C83.7721 42.0142 83.728 40.8767 83.728 39.6245C83.728 38.3724 83.7368 37.4729 83.7545 36.9262C83.7721 36.3619 83.825 35.7975 83.9132 35.2331C84.019 34.6511 84.1513 34.2367 84.31 33.9898C84.4687 33.7253 84.7068 33.4872 85.0243 33.2755C85.3417 33.0639 85.7121 32.9316 86.1354 32.8787C86.5586 32.8082 87.1053 32.7729 87.7755 32.7729H87.8284V46ZM94.8652 41.8202V43.1694C94.8652 45.0565 93.9041 46 91.9817 46H88.6485V44.0159H90.077C90.4474 44.0159 90.6767 43.963 90.7648 43.8572C90.853 43.7338 90.8971 43.5221 90.8971 43.2223V42.3758C90.8971 42.1112 90.9236 41.9613 90.9765 41.9261C91.047 41.8908 91.0911 41.8731 91.1088 41.8731C91.1264 41.8555 91.1705 41.8467 91.241 41.8467C91.3292 41.8291 91.3909 41.8202 91.4262 41.8202C92.5725 41.8202 93.7189 41.8202 94.8652 41.8202ZM88.6485 32.7729H91.7172C92.9341 32.7729 93.763 33.011 94.2039 33.4872C94.6448 33.9633 94.8652 34.6688 94.8652 35.6035V37.9315C94.8652 39.5187 94.0011 40.3123 92.2727 40.3123H88.384V38.3283H89.8125C90.2358 38.3283 90.5179 38.2754 90.659 38.1696C90.8178 38.0637 90.8971 37.8609 90.8971 37.5611V35.5506C90.8971 35.2508 90.853 35.048 90.7648 34.9421C90.6767 34.8187 90.4474 34.757 90.077 34.757H88.6485V32.7729ZM101.281 32.7729V37.614C101.281 37.9138 101.325 38.1255 101.413 38.2489C101.502 38.3547 101.731 38.4076 102.101 38.4076H103.583V40.3917H100.197C98.2743 40.3917 97.3131 39.4482 97.3131 37.5611V35.7093C97.3131 34.5453 97.6041 33.7693 98.1861 33.3813C98.7857 32.9757 99.8174 32.7729 101.281 32.7729ZM101.334 41.8202V43.2223C101.334 43.5221 101.378 43.7338 101.466 43.8572C101.555 43.963 101.784 44.0159 102.154 44.0159H103.583V46H100.25C98.3272 46 97.366 45.0565 97.366 43.1694V42.3758C97.366 42.1112 97.3924 41.9613 97.4454 41.9261C97.5159 41.8908 97.56 41.8731 97.5776 41.8731C97.5953 41.8555 97.6394 41.8467 97.7099 41.8467C97.7981 41.8291 97.851 41.8202 97.8686 41.8202C99.0326 41.8202 100.188 41.8202 101.334 41.8202ZM104.376 38.4076H105.461C107.383 38.4076 108.344 39.3512 108.344 41.2382V43.0636C108.344 44.2276 108.045 45.0124 107.445 45.418C106.863 45.806 105.84 46 104.376 46V38.4076ZM102.075 32.7729H105.408C107.33 32.7729 108.292 33.7164 108.292 35.6035V36.9791C107.11 36.9791 106.211 36.9791 105.593 36.9791C104.976 36.9791 104.659 36.9791 104.641 36.9791C104.623 36.9615 104.588 36.9527 104.535 36.9527C104.5 36.935 104.473 36.9174 104.456 36.8998C104.438 36.8821 104.42 36.8645 104.403 36.8468C104.385 36.8116 104.376 36.7763 104.376 36.741C104.341 36.5999 104.323 36.4941 104.323 36.4236V35.5506C104.323 35.2508 104.279 35.048 104.191 34.9421C104.103 34.8187 103.874 34.757 103.503 34.757H102.075V32.7729ZM111.012 32.7729H114.028C114.31 32.7729 114.539 32.8699 114.716 33.0639C114.892 33.2579 114.98 33.5136 114.98 33.8311V43.2223C114.98 43.5045 115.042 43.7073 115.165 43.8308C115.306 43.9542 115.606 44.0159 116.065 44.0159H117.599V46H113.896C111.973 46 111.012 45.0565 111.012 43.1694V32.7729ZM123.419 45.8148C123.419 45.9383 123.375 46 123.287 46H120.615C119.839 46 119.248 45.8148 118.842 45.4445C118.454 45.0565 118.26 44.5627 118.26 43.963V32.7729H121.276C121.558 32.7729 121.788 32.8699 121.964 33.0639C122.14 33.2579 122.229 33.5136 122.229 33.8311V43.0107C122.229 43.5574 122.343 43.866 122.573 43.9366C122.696 43.9895 122.864 44.0159 123.075 44.0159H123.207C123.348 44.0159 123.419 44.0777 123.419 44.2011V45.8148ZM137.356 32.7729H140.954C142.877 32.7729 143.838 33.7164 143.838 35.6035V46H140.822C140.54 46 140.311 45.903 140.134 45.709C139.958 45.515 139.87 45.2593 139.87 44.9418V35.5506C139.87 35.2684 139.799 35.0656 139.658 34.9421C139.535 34.8187 139.244 34.757 138.785 34.757H137.356V32.7729ZM125.558 32.7729H127.172C127.948 32.7729 128.53 32.9669 128.918 33.3549C129.323 33.7253 129.526 34.2102 129.526 34.8099V46H126.51C126.228 46 125.999 45.903 125.822 45.709C125.646 45.515 125.558 45.2593 125.558 44.9418V32.7729ZM130.187 32.7729H133.785C135.707 32.7729 136.669 33.7164 136.669 35.6035V46H133.653C133.371 46 133.141 45.903 132.965 45.709C132.789 45.515 132.701 45.2593 132.701 44.9418V35.5506C132.701 35.2684 132.63 35.0656 132.489 34.9421C132.365 34.8187 132.074 34.757 131.616 34.757H130.187V32.7729ZM150.76 46H150.708C148.962 46 147.886 45.7002 147.48 45.1006C147.286 44.8184 147.127 44.545 147.004 44.2805C146.898 44.0159 146.828 43.6015 146.792 43.0371C146.704 42.0142 146.66 40.8767 146.66 39.6245C146.66 38.3724 146.669 37.4729 146.687 36.9262C146.704 36.3619 146.757 35.7975 146.845 35.2331C146.951 34.6511 147.083 34.2367 147.242 33.9898C147.401 33.7253 147.639 33.4872 147.956 33.2755C148.274 33.0639 148.644 32.9316 149.067 32.8787C149.491 32.8082 150.037 32.7729 150.708 32.7729H150.76V46ZM157.797 41.8202V43.1694C157.797 45.0565 156.836 46 154.914 46H151.581V44.0159H153.009C153.379 44.0159 153.609 43.963 153.697 43.8572C153.785 43.7338 153.829 43.5221 153.829 43.2223V42.3758C153.829 42.1112 153.856 41.9613 153.909 41.9261C153.979 41.8908 154.023 41.8731 154.041 41.8731C154.058 41.8555 154.103 41.8467 154.173 41.8467C154.261 41.8291 154.323 41.8202 154.358 41.8202C155.505 41.8202 156.651 41.8202 157.797 41.8202ZM151.581 32.7729H154.649C155.866 32.7729 156.695 33.011 157.136 33.4872C157.577 33.9633 157.797 34.6688 157.797 35.6035V37.9315C157.797 39.5187 156.933 40.3123 155.205 40.3123H151.316V38.3283H152.745C153.168 38.3283 153.45 38.2754 153.591 38.1696C153.75 38.0637 153.829 37.8609 153.829 37.5611V35.5506C153.829 35.2508 153.785 35.048 153.697 34.9421C153.609 34.8187 153.379 34.757 153.009 34.757H151.581V32.7729ZM173.5 29.3868H171.04C170.758 29.3868 170.617 29.4573 170.617 29.5984V46H167.839C167.239 46 166.842 45.9118 166.648 45.7355C166.472 45.5415 166.384 45.1446 166.384 44.545V28.3815C166.384 27.7642 166.472 27.3586 166.648 27.1646C166.842 26.9706 167.239 26.8736 167.839 26.8736H173.5V29.3868ZM174.982 37.6934H177.495C178.218 37.6934 178.685 37.8609 178.897 38.196C179.108 38.5135 179.214 39.0249 179.214 39.7304V43.6456C179.214 44.8096 178.906 45.5238 178.288 45.7884C177.989 45.9295 177.609 46 177.151 46H171.675V43.5133H173.897C174.62 43.5133 174.982 43.2576 174.982 42.7461V37.6934ZM174.638 26.8736H177.151C177.856 26.8736 178.306 27.0323 178.5 27.3498C178.712 27.6672 178.817 28.1875 178.817 28.9106V33.9898C178.817 35.0127 178.632 35.7534 178.262 36.2119C177.909 36.6705 177.16 36.8998 176.013 36.8998H171.675V34.3866H173.632C174.073 34.3866 174.347 34.2808 174.452 34.0692C174.576 33.8575 174.638 33.5313 174.638 33.0904V26.8736ZM182.211 32.7729H185.227C185.509 32.7729 185.738 32.8699 185.915 33.0639C186.091 33.2579 186.179 33.5136 186.179 33.8311V43.2223C186.179 43.5045 186.241 43.7073 186.364 43.8308C186.505 43.9542 186.805 44.0159 187.264 44.0159H188.798V46H185.095C183.172 46 182.211 45.0565 182.211 43.1694V32.7729ZM194.618 45.8148C194.618 45.9383 194.574 46 194.486 46H191.814C191.038 46 190.447 45.8148 190.041 45.4445C189.653 45.0565 189.459 44.5627 189.459 43.963V32.7729H192.475C192.757 32.7729 192.987 32.8699 193.163 33.0639C193.339 33.2579 193.428 33.5136 193.428 33.8311V43.0107C193.428 43.5574 193.542 43.866 193.771 43.9366C193.895 43.9895 194.062 44.0159 194.274 44.0159H194.406C194.547 44.0159 194.618 44.0777 194.618 44.2011V45.8148ZM196.757 32.7994H198.371C199.147 32.7994 199.729 32.9934 200.117 33.3813C200.522 33.7517 200.725 34.2367 200.725 34.8363V46H197.709C197.427 46 197.198 45.903 197.021 45.709C196.845 45.515 196.757 45.2593 196.757 44.9418V32.7994ZM196.942 27.1646C197.136 26.9706 197.7 26.8736 198.635 26.8736C199.57 26.8736 200.134 26.9706 200.328 27.1646C200.522 27.341 200.619 27.8701 200.619 28.7519C200.619 29.6337 200.513 30.1716 200.302 30.3656C200.108 30.5596 199.552 30.6566 198.635 30.6566C197.718 30.6566 197.154 30.5596 196.942 30.3656C196.748 30.1716 196.651 29.6337 196.651 28.7519C196.651 27.8701 196.748 27.341 196.942 27.1646ZM209.393 45.8148C209.393 45.9383 209.349 46 209.26 46H206.589C205.601 46 204.869 45.7707 204.393 45.3122C203.934 44.8537 203.705 44.1041 203.705 43.0636V26.9001H205.319C206.095 26.9001 206.677 27.0941 207.065 27.4821C207.47 27.8524 207.673 28.3374 207.673 28.937V43.0107C207.673 43.5574 207.788 43.866 208.017 43.9366C208.141 43.9895 208.308 44.0159 208.52 44.0159H209.181C209.322 44.0159 209.393 44.0777 209.393 44.2011V45.8148ZM217.652 34.757H216.224C215.765 34.757 215.466 34.8187 215.324 34.9421C215.201 35.0656 215.139 35.2684 215.139 35.5506V43.2488C215.139 43.5133 215.201 43.7073 215.324 43.8308C215.466 43.9542 215.765 44.0159 216.224 44.0159H217.652V46H215.086C213.34 46 212.265 45.7002 211.859 45.1006C211.665 44.8184 211.506 44.545 211.383 44.2805C211.277 44.0159 211.206 43.6015 211.171 43.0371C211.083 42.0142 211.039 40.8767 211.039 39.6245C211.039 38.3724 211.048 37.4729 211.065 36.9262C211.083 36.3619 211.136 35.7975 211.224 35.2331C211.33 34.6511 211.462 34.2367 211.621 33.9898C211.78 33.7253 212.018 33.4872 212.335 33.2755C212.653 33.0639 213.023 32.9316 213.446 32.8787C213.869 32.8082 214.416 32.7729 215.086 32.7729H217.652V34.757ZM218.446 26.8736H220.06C220.836 26.8736 221.418 27.0676 221.806 27.4556C222.211 27.826 222.414 28.311 222.414 28.9106V43.963C222.414 44.5627 222.211 45.0565 221.806 45.4445C221.418 45.8148 220.836 46 220.06 46H218.446V26.8736ZM229.374 46H229.321C227.575 46 226.499 45.7002 226.094 45.1006C225.9 44.8184 225.741 44.545 225.617 44.2805C225.512 44.0159 225.441 43.6015 225.406 43.0371C225.318 42.0142 225.273 40.8767 225.273 39.6245C225.273 38.3724 225.282 37.4729 225.3 36.9262C225.318 36.3619 225.37 35.7975 225.459 35.2331C225.564 34.6511 225.697 34.2367 225.855 33.9898C226.014 33.7253 226.252 33.4872 226.57 33.2755C226.887 33.0639 227.258 32.9316 227.681 32.8787C228.104 32.8082 228.651 32.7729 229.321 32.7729H229.374V46ZM236.411 41.8202V43.1694C236.411 45.0565 235.45 46 233.527 46H230.194V44.0159H231.622C231.993 44.0159 232.222 43.963 232.31 43.8572C232.398 43.7338 232.443 43.5221 232.443 43.2223V42.3758C232.443 42.1112 232.469 41.9613 232.522 41.9261C232.592 41.8908 232.637 41.8731 232.654 41.8731C232.672 41.8555 232.716 41.8467 232.786 41.8467C232.875 41.8291 232.936 41.8202 232.972 41.8202C234.118 41.8202 235.264 41.8202 236.411 41.8202ZM230.194 32.7729H233.263C234.48 32.7729 235.308 33.011 235.749 33.4872C236.19 33.9633 236.411 34.6688 236.411 35.6035V37.9315C236.411 39.5187 235.547 40.3123 233.818 40.3123H229.929V38.3283H231.358C231.781 38.3283 232.063 38.2754 232.204 38.1696C232.363 38.0637 232.443 37.8609 232.443 37.5611V35.5506C232.443 35.2508 232.398 35.048 232.31 34.9421C232.222 34.8187 231.993 34.757 231.622 34.757H230.194V32.7729ZM242.033 32.7729H245.208C245.313 32.7729 245.366 32.8346 245.366 32.9581V34.5718C245.366 34.6952 245.296 34.757 245.155 34.757H243.964C243.541 34.757 243.294 34.8363 243.223 34.9951C243.153 35.2243 243.118 35.48 243.118 35.7622V43.963C243.118 44.5627 242.915 45.0565 242.509 45.4445C242.121 45.8148 241.539 46 240.763 46H239.15V35.7093C239.15 34.6688 239.379 33.9193 239.837 33.4607C240.314 33.0022 241.045 32.7729 242.033 32.7729Z" fill="white"/>
<path d="M59.0625 42.2634H52.5C52.1338 42.2635 51.7739 42.1827 51.4563 42.029C51.1387 41.8754 50.8744 41.6542 50.6898 41.3876L41.9398 28.7441C41.7622 28.4879 41.5231 28.2657 41.2378 28.0918C40.9526 27.9179 40.6274 27.796 40.2831 27.734C39.9388 27.672 39.583 27.6712 39.2383 27.7316C38.8936 27.792 38.5676 27.9123 38.2812 28.0849C37.7716 28.4127 37.4234 28.8874 37.3033 29.4182C37.1832 29.9489 37.2997 30.4983 37.6305 30.9612L43.3125 39.1013C43.5335 39.423 43.6496 39.7883 43.649 40.1601C43.6483 40.5319 43.5309 40.8969 43.3088 41.218C43.0866 41.5392 42.7675 41.8051 42.384 41.9887C42.0004 42.1723 41.5661 42.267 41.125 42.2634H20.3437C19.7035 42.2546 19.082 42.4456 18.5985 42.7995C18.115 43.1534 17.8037 43.6453 17.7242 44.1809C17.6899 44.4767 17.7294 44.7753 17.8402 45.0574C17.951 45.3396 18.1306 45.5991 18.3676 45.8192C18.6045 46.0393 18.8935 46.2152 19.216 46.3355C19.5384 46.4558 19.8872 46.5179 20.2398 46.5178H59.1555C59.5076 46.5173 59.8558 46.4547 60.1776 46.3341C60.4994 46.2135 60.7877 46.0376 61.0241 45.8175C61.2604 45.5975 61.4396 45.3382 61.5501 45.0563C61.6606 44.7745 61.6999 44.4763 61.6656 44.1809C61.5865 43.6477 61.2775 43.1577 60.7975 42.8041C60.3175 42.4505 59.7 42.2581 59.0625 42.2634V42.2634Z" fill="white"/>
<path d="M36.3016 16.8012L27.7211 29.4216C27.4 29.882 27.29 30.4254 27.412 30.9494C27.5339 31.4734 27.8792 31.9416 28.3828 32.2656C28.6702 32.4394 28.9976 32.5605 29.3439 32.6211C29.6902 32.6817 30.0478 32.6805 30.3935 32.6175C30.7392 32.5545 31.0654 32.4312 31.3511 32.2555C31.6368 32.0798 31.8757 31.8555 32.0523 31.5973L37.6578 23.3465C37.877 23.0258 38.1926 22.7594 38.5728 22.5742C38.9529 22.3889 39.3843 22.2914 39.8234 22.2914C40.2626 22.2914 40.6939 22.3889 41.0741 22.5742C41.4543 22.7594 41.7699 23.0258 41.9891 23.3465L52.4344 38.5943C52.6565 38.9176 52.9755 39.1862 53.3593 39.373C53.7432 39.5599 54.1786 39.6585 54.6219 39.6591C55.0645 39.6585 55.4992 39.56 55.8825 39.3733C56.2657 39.1866 56.5841 38.9183 56.8056 38.5952C57.0271 38.2722 57.1441 37.9058 57.1447 37.5327C57.1454 37.1596 57.0297 36.793 56.8094 36.4694L37.3461 8.0664C37.1701 7.80877 36.9319 7.58513 36.647 7.40994C36.362 7.23474 36.0366 7.1119 35.6918 7.04934C35.347 6.98678 34.9904 6.98591 34.6452 7.04677C34.2999 7.10762 33.9737 7.22887 33.6875 7.40265C33.1768 7.72751 32.8271 8.20038 32.7058 8.7299C32.5846 9.25942 32.7006 9.80801 33.0312 10.2697L36.3125 15.0404C36.4937 15.309 36.588 15.613 36.5861 15.922C36.5842 16.231 36.486 16.5342 36.3016 16.8012V16.8012Z" fill="white"/>
<path d="M35.4922 39.7098C35.8945 39.7076 36.2905 39.6245 36.647 39.4673C37.0036 39.3102 37.3104 39.0835 37.5421 38.8062C37.7737 38.5289 37.9234 38.209 37.9787 37.8731C38.0341 37.5372 37.9934 37.195 37.8602 36.875C37.6845 36.4641 37.3606 36.1098 36.934 35.8618C36.5074 35.6138 35.9994 35.4846 35.4813 35.4922V35.4922H24.1883C23.7474 35.4968 23.3129 35.4028 22.9291 35.2198C22.5454 35.0368 22.226 34.7713 22.0037 34.4504C21.7813 34.1294 21.6639 33.7645 21.6634 33.3929C21.6629 33.0212 21.7793 32.6561 22.0008 32.3348L32.4461 17.0823C32.7804 16.5933 32.8706 16.0124 32.6967 15.4674C32.5229 14.9224 32.0993 14.4579 31.5191 14.1761C30.939 13.8943 30.2498 13.8184 29.6031 13.9649C28.9565 14.1114 28.4054 14.4684 28.0711 14.9574L8.64063 43.365C8.47509 43.6071 8.36775 43.8744 8.32475 44.1514C8.28174 44.4285 8.30391 44.71 8.38999 44.9799C8.47606 45.2498 8.62436 45.5027 8.82641 45.7243C9.02846 45.9458 9.28031 46.1317 9.56758 46.2712C9.85485 46.4107 10.1719 46.5012 10.5007 46.5374C10.8294 46.5737 11.1634 46.555 11.4836 46.4825C11.8038 46.4099 12.1039 46.2849 12.3667 46.1146C12.6296 45.9443 12.8501 45.732 13.0156 45.4899L16.3406 40.6409C16.5232 40.3734 16.7861 40.1512 17.1029 39.9967C17.4197 39.8421 17.7793 39.7607 18.1453 39.7605L35.4922 39.7098Z" fill="white"/>
</svg>
